<svg width="193" height="144" viewBox="0 0 193 144" fill="none" xmlns="http://www.w3.org/2000/svg">
<path d="M40.3369 18.0024C51.1039 -4.94932 89.3498 -1.71407 104.11 14.4274C118.869 30.569 123.668 40.9117 136.982 34.8891C150.295 28.8664 167.273 30.4724 168.229 49.6253C169.186 68.7782 153.62 91.4133 128.849 98.1116C104.079 104.81 104.098 128.518 71.3302 123.735C53.4649 121.125 53.0598 101.783 55.5828 85.7845C58.1058 69.7858 27.8455 44.618 40.3369 18.0024Z" fill="#407BFF"/>
<path opacity="0.9" d="M40.3369 18.0024C51.1039 -4.94932 89.3498 -1.71407 104.11 14.4274C118.869 30.569 123.668 40.9117 136.982 34.8891C150.295 28.8664 167.273 30.4724 168.229 49.6253C169.186 68.7782 153.62 91.4133 128.849 98.1116C104.079 104.81 104.098 128.518 71.3302 123.735C53.4649 121.125 53.0598 101.783 55.5828 85.7845C58.1058 69.7858 27.8455 44.618 40.3369 18.0024Z" fill="white"/>
<path d="M96.4442 143.834C137.754 143.834 171.242 141.877 171.242 139.463C171.242 137.05 137.754 135.093 96.4442 135.093C55.1343 135.093 21.646 137.05 21.646 139.463C21.646 141.877 55.1343 143.834 96.4442 143.834Z" fill="#F5F5F5"/>
<path d="M153.925 140.278H85.8121C85.4029 140.278 85.0104 140.115 84.721 139.826C84.4316 139.536 84.269 139.143 84.269 138.734V92L116.902 67.2916C117.485 66.8486 118.194 66.6043 118.926 66.5945C119.658 66.5848 120.374 66.8102 120.968 67.2375L155.468 92V138.745C155.465 139.153 155.301 139.542 155.012 139.83C154.723 140.117 154.332 140.278 153.925 140.278Z" fill="#407BFF"/>
<path opacity="0.2" d="M153.925 140.278H85.8121C85.4029 140.278 85.0104 140.115 84.721 139.826C84.4316 139.536 84.269 139.143 84.269 138.734V92L116.902 67.2916C117.485 66.8486 118.194 66.6043 118.926 66.5945C119.658 66.5848 120.374 66.8102 120.968 67.2375L155.468 92V138.745C155.465 139.153 155.301 139.542 155.012 139.83C154.723 140.117 154.332 140.278 153.925 140.278Z" fill="black"/>
<path d="M141.866 118.272H93.6436C94.2363 117.886 94.7233 117.358 95.0601 116.735C95.397 116.113 95.5731 115.416 95.5724 114.709V42.2629C95.5731 41.5028 95.7915 40.7588 96.2018 40.119C96.612 39.4792 97.1969 38.9705 97.8871 38.6532H146.109C145.419 38.9705 144.834 39.4792 144.424 40.119C144.014 40.7588 143.795 41.5028 143.794 42.2629V114.709C143.795 115.416 143.619 116.113 143.282 116.735C142.945 117.358 142.458 117.886 141.866 118.272Z" fill="#407BFF"/>
<path opacity="0.7" d="M141.866 118.272H93.6436C94.2363 117.886 94.7233 117.358 95.0601 116.735C95.397 116.113 95.5731 115.416 95.5724 114.709V42.2629C95.5731 41.5028 95.7915 40.7588 96.2018 40.119C96.612 39.4792 97.1969 38.9705 97.8871 38.6532H146.109C145.419 38.9705 144.834 39.4792 144.424 40.119C144.014 40.7588 143.795 41.5028 143.794 42.2629V114.709C143.795 115.416 143.619 116.113 143.282 116.735C142.945 117.358 142.458 117.886 141.866 118.272Z" fill="white"/>
<path d="M140.453 60.3309C139.771 59.9912 137.722 60.3618 137.186 60.4236C136.65 60.4853 136.395 60.4544 135.905 60.5124C135.415 60.5703 135.365 60.5124 135.28 60.3309C135.195 60.1494 134.339 60.2691 134.123 60.188C133.907 60.107 131.982 60.5162 129.922 60.5124C127.862 60.5085 129.243 60.5471 128.946 60.188C128.649 59.829 127.657 60.4544 127.441 60.493C127.225 60.5317 126.716 60.5471 126.639 60.1765C126.562 59.8058 126.029 60.5625 125.508 60.4853C124.988 60.4081 126.114 59.5935 125.4 59.9603C124.687 60.327 123.043 60.4853 123.043 60.4853L123.564 60.8714C121.597 60.9023 119.884 60.9332 119.54 60.9641C119.197 60.9949 118.985 60.9949 118.599 60.3734C118.213 59.7518 118.256 60.5317 116.801 60.9023C115.347 61.2729 115.004 61.1802 114.317 60.8405C113.63 60.5008 113.291 60.8714 112.774 60.9332C112.257 60.9949 111.983 60.964 111.493 61.022C111.003 61.0799 110.957 61.022 110.868 60.8405C110.779 60.6591 109.927 60.7787 109.711 60.6977C109.495 60.6166 107.57 61.0258 105.51 61.022C103.45 61.0181 104.831 61.0567 104.534 60.6977C104.237 60.3386 103.245 60.964 103.033 61.0027C102.821 61.0413 102.304 61.0567 102.231 60.6861C102.157 60.3155 101.617 61.0722 101.1 60.9949C100.583 60.9177 101.706 60.1031 100.988 60.4699C100.271 60.8366 98.6313 60.9949 98.6313 60.9949" stroke="#263238" stroke-linecap="round" stroke-linejoin="round"/>
<path d="M111.362 45.8881C111.146 45.807 109.221 46.2163 107.161 46.2124C105.101 46.2085 106.482 46.2471 106.189 45.8881C105.896 45.5291 104.897 46.1545 104.684 46.1931C104.472 46.2317 103.955 46.2471 103.882 45.8765C103.809 45.5059 103.272 46.2626 102.752 46.1854C102.231 46.1082 103.357 45.2935 102.644 45.6642C101.93 46.0348 100.283 46.1854 100.283 46.1854" stroke="#263238" stroke-linecap="round" stroke-linejoin="round"/>
<path d="M140.454 100.154C140.241 100.073 138.316 100.482 136.256 100.478C134.196 100.474 135.573 100.513 135.28 100.154C134.987 99.7947 133.992 100.42 133.776 100.459C133.56 100.497 133.05 100.513 132.973 100.142C132.896 99.7716 132.364 100.528 131.843 100.451C131.322 100.374 132.449 99.5592 131.735 99.926C131.021 100.293 129.374 100.451 129.374 100.451" stroke="#263238" stroke-linecap="round" stroke-linejoin="round"/>
<path d="M98.5889 64.7476C98.7261 64.6893 98.8737 64.6593 99.0229 64.6593C99.172 64.6593 99.3196 64.6893 99.4569 64.7476L99.8041 64.5005C100.005 64.7437 100.387 64.6781 100.664 64.5391C100.916 64.3546 101.217 64.2473 101.528 64.2303C101.509 64.3615 101.486 64.4967 101.467 64.6163C101.878 64.5621 102.279 64.4504 102.659 64.2843C102.63 64.3402 102.625 64.4051 102.643 64.4651C102.662 64.525 102.704 64.5752 102.759 64.6048C102.871 64.6579 102.996 64.6767 103.118 64.6588L106.682 64.5314L107.311 64.5082C107.346 64.5206 107.375 64.5458 107.393 64.5788C107.41 64.6117 107.414 64.65 107.404 64.6858C107.862 64.6061 108.281 64.3767 108.596 64.0334C108.577 64.1652 108.608 64.2994 108.683 64.4094C108.758 64.5195 108.871 64.5974 109.001 64.6279C109.266 64.6788 109.541 64.6293 109.773 64.4889C109.874 64.4264 109.987 64.3832 110.104 64.3615C110.164 64.3546 110.224 64.3689 110.274 64.4022C110.325 64.4354 110.361 64.4852 110.378 64.543C110.598 64.4426 110.833 64.6163 111.069 64.6781C111.215 64.7085 111.364 64.7176 111.512 64.7051L116.327 64.5082L117.503 64.736C117.503 64.736 119.151 64.5816 119.864 64.2148C120.578 63.8481 119.456 64.6434 119.972 64.736C120.489 64.8287 121.029 64.0565 121.103 64.4272C121.176 64.7978 121.693 64.7824 121.905 64.7437C122.117 64.7051 123.117 64.0836 123.41 64.4426C123.703 64.8017 122.326 64.7592 124.386 64.763C126.446 64.7669 128.371 64.377 128.583 64.4426C128.795 64.5082 129.655 64.4001 129.74 64.5816C129.825 64.763 129.871 64.821 130.365 64.763C130.859 64.7051 131.11 64.736 131.646 64.6743C132.182 64.6125 132.522 64.2457 133.208 64.5816C133.895 64.9175 134.235 65.014 135.693 64.6434C137.151 64.2727 137.105 63.4852 137.491 64.1183C137.876 64.7515 140.129 64.736 140.469 64.7051" stroke="#263238" stroke-linecap="round" stroke-linejoin="round"/>
<path d="M140.392 57.1728C140.245 57.1728 140.538 57.1728 140.392 57.1458C140.16 57.084 140.611 56.9103 140.392 57.0107C140.372 56.891 138.216 56.8215 138.096 56.8331C137.979 56.8522 137.866 56.8942 137.764 56.9566C137.533 57.097 137.258 57.1465 136.993 57.0956C136.867 57.0611 136.758 56.9815 136.687 56.8719C136.616 56.7622 136.587 56.6303 136.607 56.5011C136.292 56.8442 135.873 57.0747 135.415 57.1574C135.425 57.121 135.421 57.0822 135.404 57.0486C135.387 57.015 135.358 56.9891 135.322 56.9759L134.694 56.9991L131.129 57.1304C131.006 57.1448 130.882 57.1248 130.77 57.0724C130.715 57.0429 130.673 56.9927 130.655 56.9328C130.636 56.8728 130.641 56.8079 130.67 56.752C130.29 56.9181 129.889 57.0298 129.478 57.084C129.501 56.9489 129.52 56.8138 129.54 56.698C129.228 56.7169 128.928 56.824 128.675 57.0068C128.398 57.1458 128.016 57.2114 127.815 56.9682L127.468 57.2192C127.331 57.16 127.183 57.1295 127.034 57.1295C126.885 57.1295 126.737 57.16 126.6 57.2192L123.128 56.8794C123.128 56.8794 121.523 56.9142 121.269 56.7713C121.014 56.6285 120.111 57.1304 120.111 57.1304H118.954L117.476 57.1844V56.9026C116.906 57.0227 116.327 57.0988 115.744 57.1304C114.911 57.1612 114.718 57.2809 114.68 56.9026C114.641 56.5242 113.561 57.0068 112.704 57.1844C111.848 57.362 112.022 57.3273 111.763 56.9026C111.505 56.4779 111.184 56.9605 110.737 57.1342C110.504 57.2373 110.253 57.2906 109.998 57.2906C109.744 57.2906 109.492 57.2373 109.259 57.1342C108.874 56.8987 107.203 57.2809 106.524 57.2886C105.845 57.2964 106.497 57.0995 106.354 56.7713C106.212 56.4432 105.726 57.3273 105.267 57.2886C104.808 57.25 105.652 56.4046 105.008 56.4702C104.398 56.6118 103.815 56.8531 103.284 57.1844" stroke="#263238" stroke-linecap="round" stroke-linejoin="round"/>
<path d="M137.502 68.1797C137.248 68.1797 136.901 67.9828 136.92 67.4268C136.746 67.257 136.557 67.562 136.391 67.7743C136.225 67.9866 135.948 68.0098 135.901 67.6006C135.849 67.6574 135.785 67.7017 135.713 67.73C135.641 67.7583 135.564 67.7699 135.487 67.7639C135.41 67.758 135.336 67.7346 135.269 67.6956C135.203 67.6566 135.146 67.603 135.103 67.5388C135.06 67.6963 134.96 67.832 134.822 67.9192C134.684 68.0064 134.519 68.0387 134.358 68.0098L127.545 67.7241C127.376 67.7331 127.207 67.6856 127.067 67.589C126.967 67.5118 126.878 67.3882 126.774 67.3458C126.496 67.2222 126.245 67.701 126.002 67.9866C125.759 68.2723 125.339 68.2144 125.296 67.6006C125.007 68.1604 124.571 68.3225 124.212 67.9866C124.05 68.1218 123.877 68.2569 123.707 68.1951C123.593 68.105 123.505 67.9857 123.453 67.8498C123.4 67.714 123.386 67.5665 123.41 67.423C123.381 67.6458 123.295 67.8572 123.159 68.0366C123.024 68.2159 122.845 68.357 122.638 68.4461C122.315 68.4934 121.985 68.4309 121.701 68.2685L118.966 68.3766C118.06 68.4502 117.148 68.3759 116.265 68.1565C116.289 68.3457 115.999 68.419 115.787 68.4229L113.989 68.4538C113.859 68.4632 113.727 68.4462 113.604 68.4036C113.544 68.3841 113.493 68.3438 113.46 68.2899C113.428 68.236 113.416 68.1723 113.426 68.1102C113.056 68.2066 112.669 68.2145 112.296 68.1333C112.084 68.0214 111.852 68.2337 111.632 68.3302C111.431 68.4024 111.216 68.43 111.003 68.4113L107.898 68.3611C107.62 68.3611 107.292 68.3302 107.146 68.1179C106.689 68.2899 106.272 68.5525 105.919 68.89C105.981 68.6691 105.981 68.4354 105.919 68.2144C105.595 68.3317 105.293 68.5041 105.028 68.724C104.993 68.3032 104.954 67.8824 104.916 67.4655C104.299 67.5349 103.87 68.1218 103.249 68.1835C102.9 68.1528 102.55 68.145 102.2 68.1604C101.926 68.2221 101.594 68.4152 101.401 68.226C101.347 68.1758 101.32 68.0986 101.251 68.0639C101.205 68.0493 101.157 68.0443 101.109 68.0489C101.062 68.0535 101.015 68.0678 100.973 68.0909C100.177 68.3821 99.3114 68.4212 98.4927 68.2028" stroke="#263238" stroke-linecap="round" stroke-linejoin="round"/>
<path d="M98.1802 76.0941C98.1802 76.0941 99.4957 75.9396 100.067 75.569C100.638 75.1984 99.7387 76.0014 100.155 76.0941C100.572 76.1867 101 75.4107 101.062 75.7813C101.124 76.152 101.533 76.1404 101.702 76.1018C101.872 76.0632 102.671 75.4377 102.906 75.7968C103.141 76.1558 102.038 76.1172 103.677 76.1211C105.317 76.1249 106.868 75.735 107.038 75.7968C107.207 75.8585 107.894 75.7543 107.963 75.9396C108.033 76.1249 108.068 76.1751 108.461 76.1211C108.855 76.067 109.059 76.094 109.487 76.0323C109.915 75.9705 110.189 75.5999 110.741 75.9396C111.293 76.2794 111.563 76.3682 112.728 76.0014C113.893 75.6346 113.858 74.8432 114.167 75.4725C114.475 76.1018 114.645 76.094 114.919 76.0632C115.193 76.0323 116.566 76.0014 118.14 75.9705L120.987 75.874C121.804 76.0938 122.669 76.056 123.464 75.7659C123.506 75.7428 123.552 75.7286 123.6 75.7239C123.648 75.7193 123.696 75.7244 123.742 75.7389C123.811 75.7736 123.842 75.847 123.896 75.901C124.085 76.0863 124.417 75.901 124.695 75.8315C125.045 75.8194 125.395 75.8285 125.744 75.8585C126.361 75.7968 126.789 75.2099 127.41 75.1366C127.445 75.5574 127.484 75.9782 127.522 76.3952C127.787 76.1765 128.087 76.0054 128.41 75.8894C128.473 76.1102 128.473 76.3443 128.41 76.5651C128.761 76.2254 129.178 75.9625 129.636 75.7929C129.783 76.0053 130.107 76.0323 130.385 76.0361L133.494 76.0863C133.707 76.1045 133.922 76.0769 134.123 76.0053C134.343 75.9087 134.574 75.6964 134.787 75.8045C135.159 75.8888 135.547 75.8822 135.917 75.7852C135.906 75.8473 135.918 75.9111 135.951 75.9649C135.984 76.0188 136.034 76.0591 136.094 76.0786C136.218 76.1199 136.35 76.1356 136.48 76.1249L138.278 76.0941C138.49 76.0941 138.775 76.0207 138.756 75.8315C139.632 76.0477 139.528 76.1249 140.415 76.0516" stroke="#263238" stroke-linecap="round" stroke-linejoin="round"/>
<path d="M140.453 71.9053C139.296 72.272 139.778 72.1794 139.23 71.8435C138.683 71.5076 138.409 71.8744 137.981 71.9362C137.552 71.9979 137.344 71.967 136.95 72.0249C136.557 72.0829 136.522 72.0249 136.453 71.8435C136.383 71.662 135.701 71.7817 135.527 71.7007C135.353 71.6196 133.814 72.0288 132.167 72.0249C130.52 72.0211 131.623 72.0597 131.395 71.7007C131.168 71.3416 130.365 71.967 130.192 72.0056C130.018 72.0442 129.609 72.0597 129.551 71.6852C129.493 71.3107 129.061 72.0713 128.645 71.9979C128.228 71.9246 129.131 71.1061 128.56 71.4729C127.989 71.8396 126.67 71.9979 126.67 71.9979L123.41 71.8975L120.96 71.9246C120.705 71.9246 120.362 71.7277 120.381 71.1524C120.204 70.9826 120.019 71.2876 119.849 71.4999C119.679 71.7122 119.405 71.7354 119.363 71.3262C119.31 71.3831 119.246 71.4273 119.174 71.4556C119.102 71.4839 119.024 71.4955 118.947 71.4896C118.87 71.4837 118.795 71.4603 118.728 71.4213C118.661 71.3823 118.604 71.3287 118.561 71.2644C118.518 71.4211 118.418 71.5562 118.281 71.6433C118.144 71.7304 117.98 71.7632 117.82 71.7354L111.007 71.4497C110.836 71.4596 110.666 71.412 110.525 71.3146C110.438 71.2226 110.341 71.141 110.235 71.0714C109.954 70.9478 109.703 71.4265 109.464 71.7122C109.225 71.9979 108.797 71.9439 108.758 71.3262C108.465 71.886 108.029 72.0481 107.67 71.7122C107.508 71.8474 107.338 71.9863 107.169 71.9207C107.054 71.8305 106.966 71.7113 106.913 71.5756C106.86 71.4398 106.845 71.2924 106.868 71.1486C106.838 71.3711 106.751 71.5822 106.616 71.7615C106.481 71.9407 106.302 72.082 106.096 72.1717C105.771 72.2187 105.44 72.1562 105.155 71.9941" stroke="#263238" stroke-linecap="round" stroke-linejoin="round"/>
<path d="M140.454 46.5753L133.641 46.2857C133.471 46.2969 133.302 46.2492 133.162 46.1506C133.074 46.0587 132.976 45.9771 132.869 45.9074C132.591 45.7877 132.341 46.2626 132.098 46.5521C131.855 46.8417 131.43 46.7799 131.392 46.166C131.099 46.7258 130.663 46.888 130.304 46.5521C130.142 46.6872 129.972 46.8262 129.798 46.7645C129.685 46.6735 129.598 46.5541 129.546 46.4185C129.494 46.2829 129.478 46.1358 129.501 45.9923C129.472 46.2149 129.385 46.426 129.25 46.6052C129.115 46.7844 128.936 46.9257 128.73 47.0154C128.405 47.0593 128.075 46.997 127.789 46.8378" stroke="#263238" stroke-linecap="round" stroke-linejoin="round"/>
<path d="M140.454 103.42L133.641 103.134C133.471 103.143 133.303 103.096 133.162 102.999C133.074 102.906 132.976 102.823 132.869 102.752C132.591 102.632 132.341 103.111 132.098 103.397C131.855 103.683 131.43 103.625 131.392 103.011C131.099 103.571 130.663 103.733 130.304 103.397C130.142 103.532 129.972 103.667 129.798 103.605C129.685 103.514 129.598 103.395 129.546 103.259C129.494 103.124 129.478 102.977 129.501 102.833C129.472 103.056 129.385 103.267 129.25 103.446C129.115 103.625 128.936 103.767 128.73 103.856C128.405 103.904 128.074 103.841 127.789 103.679" stroke="#263238" stroke-linecap="round" stroke-linejoin="round"/>
<path d="M98.1802 83.3212C99.2024 83.5396 100.263 83.5011 101.266 83.2092C101.376 83.1624 101.498 83.1529 101.614 83.1822C101.698 83.217 101.733 83.2903 101.803 83.3444C102.042 83.5297 102.451 83.3444 102.794 83.2749C103.215 83.1977 103.662 83.3366 104.094 83.3019C104.866 83.2401 105.394 82.6533 106.166 82.58L106.305 83.8385C106.645 83.6165 107.017 83.4461 107.408 83.3328C107.487 83.5511 107.487 83.7901 107.408 84.0084C107.864 83.6593 108.381 83.3975 108.932 83.2363C109.201 83.4327 109.535 83.5197 109.865 83.4795L113.723 83.5297C113.983 83.5475 114.244 83.5201 114.495 83.4486C114.769 83.3521 115.054 83.1398 115.32 83.2517C115.786 83.3329 116.262 83.325 116.724 83.2285C116.674 83.3444 116.79 83.4679 116.94 83.522C117.101 83.5642 117.268 83.5812 117.434 83.5722L119.668 83.5374C119.93 83.5374 120.289 83.4641 120.262 83.2749C121.367 83.4934 122.495 83.5673 123.618 83.4949L126.373 83.6416C126.774 83.522 127.202 83.522 127.603 83.6416L128.093 83.3907C128.379 83.6339 128.923 83.5722 129.316 83.4293C129.699 83.2427 130.117 83.1375 130.543 83.1204C130.516 83.2556 130.485 83.3868 130.458 83.5065C131.031 83.4537 131.597 83.3425 132.148 83.1745C132.044 83.2787 132.148 83.4332 132.287 83.4949C132.452 83.5476 132.627 83.5673 132.8 83.5529L137.853 83.4216L138.748 83.3984C138.849 83.4177 138.914 83.5065 138.88 83.5799C139.451 83.5124 139.992 83.2864 140.442 82.9274C140.349 83.1861 140.083 83.4525 140.442 83.5181" stroke="#263238" stroke-linecap="round" stroke-linejoin="round"/>
<path d="M140.376 79.4643C140.11 79.3562 140.65 79.5647 140.376 79.6651C140.102 79.7655 140.638 79.7462 140.376 79.7462L136.071 79.6921C135.741 79.7315 135.408 79.6461 135.137 79.4527C134.587 79.6154 134.07 79.8771 133.613 80.2249C133.692 80.008 133.692 79.7701 133.613 79.5531C133.221 79.6631 132.849 79.8337 132.51 80.0589L132.371 78.8003C131.6 78.8736 131.071 79.4605 130.299 79.5223C129.867 79.557 129.42 79.4141 128.999 79.4952C128.656 79.5609 128.228 79.75 128.008 79.5608C127.939 79.5107 127.904 79.4335 127.819 79.3987C127.703 79.3713 127.582 79.3808 127.472 79.4257C126.469 79.7215 125.407 79.76 124.386 79.5377L123.255 79.6381L116.423 79.835C116.212 79.8473 116 79.8383 115.79 79.8079C115.459 79.7462 115.123 79.5724 114.811 79.6728C114.78 79.5531 114.591 79.4836 114.425 79.4914C114.264 79.5101 114.106 79.553 113.958 79.6188C113.617 79.757 113.246 79.8049 112.882 79.7577C112.519 79.6921 112.214 79.4219 112.307 79.1632C111.811 79.5265 111.228 79.7516 110.617 79.8157C110.648 79.7462 110.586 79.6574 110.482 79.6342L109.591 79.6612L104.537 79.7886C104.364 79.8047 104.19 79.7863 104.024 79.7346C103.874 79.669 103.781 79.5145 103.882 79.4142C103.331 79.5828 102.765 79.6941 102.192 79.7462C102.223 79.611 102.25 79.4759 102.281 79.3408C101.854 79.3568 101.436 79.4634 101.054 79.6535C100.668 79.7925 100.112 79.8581 99.8309 79.6149L99.3371 79.862C98.9353 79.7441 98.5082 79.7441 98.1064 79.862" stroke="#263238" stroke-linecap="round" stroke-linejoin="round"/>
<path d="M98.0991 87.2861C98.4179 87.3662 98.7474 87.3949 99.0751 87.371C99.2419 87.3581 99.4031 87.3054 99.5453 87.2174C99.6876 87.1294 99.8068 87.0087 99.893 86.8653C99.8912 86.9556 99.9211 87.0437 99.9774 87.1143C100.034 87.1848 100.113 87.2333 100.202 87.2514C100.383 87.2644 100.564 87.2284 100.726 87.1471C100.914 87.2238 101.12 87.2457 101.32 87.2101C101.52 87.1746 101.706 87.0832 101.857 86.9464C101.899 87.2552 102.327 87.2861 102.59 87.1433C102.852 87.0004 103.114 86.7572 103.404 86.8228C103.508 86.8553 103.61 86.8953 103.708 86.9425C103.869 86.9944 104.037 87.0179 104.206 87.012L111.293 87.1548C111.431 87.1775 111.572 87.1681 111.706 87.1273C111.84 87.0864 111.962 87.0153 112.064 86.9193C112.192 86.9879 112.333 87.0264 112.477 87.0317C112.622 87.0371 112.765 87.0092 112.898 86.9502C112.944 87.1548 113.233 87.1394 113.407 87.0352C113.58 86.9309 113.773 86.7804 113.955 86.8653C113.935 87.1394 114.294 87.2514 114.56 87.2514H117.106L118.009 87.205C118.411 87.0854 118.838 87.0854 119.24 87.205L119.733 86.9541C120.019 87.1973 120.563 87.1317 120.956 86.9927C121.339 86.8037 121.757 86.6984 122.183 86.6838C122.152 86.819 122.125 86.9502 122.094 87.0699C122.669 87.0175 123.236 86.9062 123.788 86.7379C123.684 86.8421 123.788 86.9966 123.927 87.0583C124.092 87.1114 124.267 87.131 124.44 87.1162L129.494 86.985L130.385 86.9618C130.489 86.9811 130.551 87.0699 130.52 87.1433C131.131 87.0757 131.713 86.8495 132.209 86.4869C132.117 86.7495 132.426 87.0159 132.784 87.0815C133.149 87.131 133.52 87.083 133.861 86.9425C134.01 86.8775 134.169 86.8358 134.331 86.819C134.497 86.819 134.686 86.8769 134.717 86.9966C135.05 86.9646 135.385 87.0109 135.697 87.1317C135.906 87.1639 136.118 87.173 136.33 87.1587" stroke="#263238" stroke-linecap="round" stroke-linejoin="round"/>
<path d="M155.468 92V138.749C155.464 139.127 155.322 139.491 155.068 139.772C154.814 140.052 154.466 140.229 154.09 140.27H153.936H85.8119H85.6537C85.2792 140.228 84.9331 140.05 84.6808 139.769C84.4285 139.489 84.2874 139.126 84.2842 138.749V92L114.61 112.948L116.269 114.106L118.931 115.948L121.743 114.106L123.494 112.948L155.468 92Z" fill="#407BFF"/>
<path opacity="0.2" d="M155.468 138.139V138.599C155.481 138.997 155.349 139.386 155.095 139.693C154.841 140.001 154.484 140.204 154.091 140.266H153.937H85.8123H85.6542C85.2622 140.203 84.9069 139.998 84.6548 139.691C84.4027 139.384 84.2711 138.996 84.2846 138.599V138.135L114.611 112.944L116.269 114.103L118.931 115.944L121.744 114.103L123.495 112.944L155.468 138.139Z" fill="black"/>
<path d="M155.468 138.328V138.749C155.468 139.159 155.305 139.551 155.016 139.841C154.727 140.131 154.334 140.293 153.925 140.293H85.8121C85.4029 140.293 85.0104 140.131 84.721 139.841C84.4316 139.551 84.269 139.159 84.269 138.749V138.328L116.254 114.095L116.902 113.604C117.485 113.162 118.194 112.918 118.926 112.908C119.658 112.899 120.373 113.124 120.968 113.55L121.74 114.095L155.468 138.328Z" fill="#407BFF"/>
<path d="M40.6572 140.278H43.5659L43.5659 77.9973H40.6572L40.6572 140.278Z" fill="#263238"/>
<path d="M38.2926 68.0483H47.1655C48.2551 68.0483 49.3001 68.4815 50.0706 69.2526C50.8411 70.0237 51.274 71.0695 51.274 72.16V78.8505H34.1841V72.16C34.1841 71.0695 34.6169 70.0237 35.3874 69.2526C36.1579 68.4815 37.203 68.0483 38.2926 68.0483Z" fill="#407BFF"/>
<path opacity="0.4" d="M47.2655 68.0483H47.5548C48.5371 68.0483 49.4791 68.4388 50.1736 69.1339C50.8681 69.8289 51.2583 70.7716 51.2583 71.7546V78.8505H43.5659V71.7507C43.5669 70.7691 43.957 69.828 44.6506 69.1339C45.3442 68.4398 46.2846 68.0494 47.2655 68.0483Z" fill="black"/>
<path d="M43.5659 78.6576H51.2583L53.7851 82.97C54.5567 84.2903 53.4649 85.3597 51.3393 85.3597C49.2175 85.3597 46.8682 84.2903 46.0928 82.97L43.5659 78.6576Z" fill="#407BFF"/>
<path opacity="0.2" d="M43.5659 78.6576H51.2583L53.7851 82.97C54.5567 84.2903 53.4649 85.3597 51.3393 85.3597C49.2175 85.3597 46.8682 84.2903 46.0928 82.97L43.5659 78.6576Z" fill="black"/>
<path opacity="0.4" d="M43.5659 72.4187H44.8621L46.2201 78.2715H43.5659V72.4187Z" fill="white"/>
<path opacity="0.4" d="M45.3291 73.6H46.2202L48.4963 78.2714H47.7826L45.3291 73.6Z" fill="white"/>
<path opacity="0.4" d="M47.0884 74.7892H47.6632L50.7108 78.2715H50.2595L47.0884 74.7892Z" fill="white"/>
<path d="M40.8929 73.5035V65.8671H39.9478V66.6662H40.4647V73.5035C40.3056 73.6064 40.1772 73.7504 40.093 73.9203C40.0088 74.0902 39.9719 74.2796 39.9863 74.4687C39.9863 75.0323 40.2988 75.4879 40.6769 75.4879C41.0549 75.4879 41.3674 75.0323 41.3674 74.4687C41.3814 74.2801 41.3448 74.0912 41.2613 73.9215C41.1779 73.7518 41.0507 73.6075 40.8929 73.5035Z" fill="#407BFF"/>
<path opacity="0.7" d="M40.8929 73.5035V65.8671H39.9478V66.6662H40.4647V73.5035C40.3056 73.6064 40.1772 73.7504 40.093 73.9203C40.0088 74.0902 39.9719 74.2796 39.9863 74.4687C39.9863 75.0323 40.2988 75.4879 40.6769 75.4879C41.0549 75.4879 41.3674 75.0323 41.3674 74.4687C41.3814 74.2801 41.3448 74.0912 41.2613 73.9215C41.1779 73.7518 41.0507 73.6075 40.8929 73.5035Z" fill="white"/>
<path opacity="0.2" d="M43.566 85.9504L40.6572 84.1436V140.278H43.566V85.9504Z" fill="white"/>
<path d="M33.3969 140.278H52.8169C52.8169 140.278 53.5422 139.309 48.9013 139.212C48.9013 139.212 53.1024 135.518 52.4659 134.456C51.8293 133.394 48.4962 137.278 48.4962 137.278C48.4962 137.278 50.5447 133.078 49.8271 131.873C49.1096 130.669 46.9107 135.896 46.9107 135.896C46.9107 135.896 46.2549 132.862 45.329 132.564C44.4031 132.267 42.1116 136.008 42.1116 136.008C42.1116 136.008 39.1141 128.125 37.5402 128.696C35.9662 129.267 38.5393 134.695 38.5393 134.695C38.5393 134.695 35.8389 132.255 34.1839 133.12C32.5289 133.985 35.2564 137.521 35.2564 137.521C35.2564 137.521 33.2542 138.151 33.3969 140.278Z" fill="#407BFF"/>
<path opacity="0.4" d="M33.3969 140.278H52.8169C52.8169 140.278 53.5422 139.309 48.9013 139.212C48.9013 139.212 53.1024 135.518 52.4659 134.456C51.8293 133.394 48.4962 137.278 48.4962 137.278C48.4962 137.278 50.5447 133.078 49.8271 131.873C49.1096 130.669 46.9107 135.896 46.9107 135.896C46.9107 135.896 46.2549 132.862 45.329 132.564C44.4031 132.267 42.1116 136.008 42.1116 136.008C42.1116 136.008 39.1141 128.125 37.5402 128.696C35.9662 129.267 38.5393 134.695 38.5393 134.695C38.5393 134.695 35.8389 132.255 34.1839 133.12C32.5289 133.985 35.2564 137.521 35.2564 137.521C35.2564 137.521 33.2542 138.151 33.3969 140.278Z" fill="white"/>
<path d="M73.6838 42.5719C74.0428 42.1713 74.4996 41.8707 75.0094 41.6995C75.5192 41.5283 76.0647 41.4923 76.5925 41.5952C78.5214 41.9001 82.3792 45.2667 82.0204 48.9034C81.6617 52.5402 80.5429 55.8527 79.401 55.9994C79.401 55.9994 78.3864 54.706 73.055 54.8682C67.7235 55.0303 68.6918 51.6561 69.5598 48.9652C70.4278 46.2743 70.1732 41.3095 73.6838 42.5719Z" fill="#263238"/>
<path d="M80.8051 57.5552C81.8659 58.5474 85.3109 64.3886 85.716 64.6434C86.1211 64.8982 86.2947 62.2382 86.2947 62.2382L88.1734 61.9062C88.1734 61.9062 89.188 68.3496 86.4644 67.7628C83.409 67.0988 79.397 61.524 79.397 61.524C79.397 61.524 79.6863 59.7172 79.8329 59.057C79.9795 58.3968 80.8051 57.5552 80.8051 57.5552Z" fill="#407BFF"/>
<path opacity="0.4" d="M86.4644 67.7628C84.1034 67.2494 81.1754 63.8095 79.9641 62.2691C79.6053 61.8135 79.397 61.524 79.397 61.524C79.397 61.524 79.5513 60.5704 79.6863 59.7982C79.7403 59.5048 79.7943 59.2384 79.8329 59.057C79.9834 58.3929 80.8051 57.5552 80.8051 57.5552C81.8659 58.5474 85.3109 64.3886 85.716 64.6434C86.1211 64.8982 86.2947 62.2382 86.2947 62.2382L88.1734 61.9062C88.1734 61.9062 89.188 68.3342 86.4644 67.7628Z" fill="white"/>
<path opacity="0.2" d="M79.9641 62.2692C79.6053 61.8136 79.397 61.5241 79.397 61.5241C79.397 61.5241 79.5513 60.5705 79.6863 59.7983C79.9944 60.5832 80.0902 61.4354 79.9641 62.2692Z" fill="black"/>
<path d="M79.1308 62.3192C78.637 63.8017 78.2512 65.0835 77.9388 66.234C77.0994 69.1153 76.5578 72.0752 76.3224 75.0672L64.4443 73.7893C64.1318 65.2958 64.4443 60.6128 64.7028 58.281C64.9921 55.7985 65.3779 55.7136 65.3779 55.7136C65.3779 55.7136 68.0783 55.5051 70.4238 55.5708C72.238 55.6662 74.0429 55.892 75.8247 56.2464C77.5145 56.5607 79.179 56.9981 80.8051 57.5552C80.5158 58.3273 80.2534 59.0685 80.0104 59.7596C79.6863 60.6784 79.3931 61.5278 79.1308 62.3192Z" fill="#407BFF"/>
<path opacity="0.4" d="M80.805 57.5551C80.5157 58.3273 80.2534 59.0685 80.0103 59.7596C79.6863 60.6784 79.3931 61.5278 79.1307 62.3192C78.637 63.8017 78.2512 65.0834 77.9387 66.2339C77.0994 69.1153 76.5577 72.0752 76.3223 75.0672L64.4442 73.7893C64.4057 72.743 64.3787 71.7586 64.3555 70.8243C64.3092 68.7241 64.3015 66.9057 64.3247 65.3344C64.3247 65.0564 64.3247 64.7862 64.3247 64.5237C64.3787 61.9293 64.506 60.0761 64.6333 58.7944C64.6564 58.6091 64.6718 58.4392 64.6911 58.2809C64.9805 55.7985 65.3662 55.7136 65.3662 55.7136C65.3662 55.7136 68.0667 55.5051 70.4122 55.5669C72.2263 55.6655 74.0311 55.8926 75.8131 56.2463C77.5067 56.5601 79.1752 56.9975 80.805 57.5551Z" fill="white"/>
<path opacity="0.2" d="M65.8024 59.2191C65.8024 59.2191 65.5208 62.354 64.3364 64.5237C64.3904 61.9293 64.5177 60.0762 64.645 58.7944C65.0463 58.8896 65.4348 59.0322 65.8024 59.2191Z" fill="black"/>
<path opacity="0.2" d="M75.7243 70.3302L72.2061 69.9055C72.2061 69.9055 71.6775 70.9556 70.8404 71.0637C70.0033 71.1718 68.0512 69.6739 68.0512 69.6739C66.9053 70.2943 65.6504 70.6876 64.3555 70.8321C64.3092 68.7318 64.3015 66.9135 64.3247 65.3422C65.401 65.4194 68.1824 65.8016 72.1135 67.5775C72.5957 67.786 75.7243 70.3302 75.7243 70.3302Z" fill="black"/>
<path d="M86.9464 136.884L84.5121 137.313L83.513 133.993L82.6025 130.947L85.4071 129.962L86.225 133.626L86.9464 136.884Z" fill="#E4897B"/>
<path opacity="0.2" d="M86.2366 133.703L83.5246 134.059L82.6104 130.978L85.4111 129.982L86.2366 133.703Z" fill="black"/>
<path d="M70.7014 138.004H68.2286L67.8235 134.522L67.457 131.344L70.3889 130.854L70.5548 134.638L70.7014 138.004Z" fill="#E4897B"/>
<path opacity="0.2" d="M70.5548 134.672L67.8235 134.549L67.457 131.356L70.3889 130.862L70.5548 134.672Z" fill="black"/>
<path d="M86.4641 131.769L82.4636 132.476C78.4283 122.411 75.5582 114.01 73.529 107.038C72.4372 103.277 71.5268 99.9301 70.871 96.9613L70.9944 107.918V132.599H67.0518C57.1721 85.4989 64.2395 73.7392 64.2395 73.7392L75.9979 72.7972C76.4674 74.989 76.7986 77.2081 76.9894 79.4415L77.5218 83.3678L82.1511 107.254L86.4641 131.769Z" fill="#263238"/>
<path opacity="0.2" d="M73.5294 107.038C72.4376 103.277 71.6005 99.9301 70.9331 96.9612C70.9911 93.4478 71.2487 89.9405 71.7047 86.4563C71.7047 86.4563 73.4291 99.9919 73.5294 107.038Z" fill="black"/>
<path d="M64.4095 71.8514L76.5885 72.5657L76.3956 74.6659L64.124 73.9246L64.4095 71.8514Z" fill="black"/>
<path d="M72.8118 72.4267C72.6655 72.2645 72.4624 72.1649 72.2447 72.1487L70.7479 72.0522C70.6596 72.0438 70.5705 72.0545 70.4867 72.0835C70.4029 72.1124 70.3263 72.159 70.2619 72.2201C70.1976 72.2812 70.1471 72.3554 70.1138 72.4376C70.0805 72.5198 70.0652 72.6083 70.0689 72.6969V73.6621C70.0734 73.8695 70.1504 74.0688 70.2864 74.2253C70.4224 74.3819 70.6088 74.4858 70.8134 74.5192H70.879L72.3758 74.6118C72.4638 74.6196 72.5524 74.6085 72.6358 74.5793C72.7191 74.55 72.7953 74.5033 72.8592 74.4423C72.9231 74.3813 72.9732 74.3074 73.0063 74.2254C73.0394 74.1435 73.0546 74.0554 73.0509 73.9671V73.0058C73.0464 72.7896 72.961 72.583 72.8118 72.4267ZM72.3411 74.2296L70.8443 74.137C70.7375 74.1304 70.6377 74.0818 70.5665 74.0018C70.4939 73.9243 70.4526 73.8224 70.4508 73.7161V72.7548C70.4496 72.7118 70.4574 72.6689 70.4739 72.6291C70.4904 72.5893 70.5151 72.5534 70.5465 72.5239C70.5778 72.4943 70.6151 72.4718 70.6558 72.4577C70.6965 72.4436 70.7397 72.4383 70.7826 72.4421L72.2794 72.5348H72.3103C72.4037 72.5523 72.489 72.5997 72.5533 72.6699C72.626 72.7459 72.6674 72.8465 72.669 72.9517V73.0984C72.6499 73.095 72.6303 73.095 72.6112 73.0984L72.1907 73.0675C72.1588 73.0652 72.1268 73.0698 72.097 73.081C72.0671 73.0923 72.04 73.1099 72.0176 73.1327C71.9952 73.1554 71.978 73.1828 71.9673 73.2129C71.9565 73.243 71.9525 73.2751 71.9553 73.3069C71.9627 73.3775 71.9939 73.4434 72.0436 73.4939C72.0934 73.5444 72.1589 73.5765 72.2292 73.5849L72.6497 73.6158H72.669V73.9323C72.6687 73.9739 72.6597 74.015 72.6427 74.053C72.6257 74.0909 72.601 74.1249 72.5702 74.1529C72.5393 74.1808 72.5031 74.202 72.4637 74.2153C72.4242 74.2285 72.3825 74.2334 72.3411 74.2296Z" fill="white"/>
<path d="M67.65 136.317C67.65 136.062 70.8287 136.263 70.8287 136.263C70.8287 136.263 72.7769 138.247 74.6865 138.695C76.5961 139.143 75.5236 140.278 73.4057 140.278H68.1515C66.6469 140.278 67.5882 138.985 67.65 136.317Z" fill="#263238"/>
<path d="M72.4952 137.074C72.0377 137.023 71.5925 136.892 71.1797 136.688L71.1527 136.669C71.1451 136.647 71.1451 136.624 71.1527 136.603C71.1527 136.572 71.4305 135.831 71.8625 135.653C71.9264 135.623 71.9963 135.607 72.067 135.607C72.1378 135.607 72.2076 135.623 72.2715 135.653C72.4181 135.723 72.4875 135.811 72.4798 135.92C72.4798 136.086 72.2445 136.255 71.986 136.391C72.2264 136.349 72.4737 136.376 72.6997 136.468C72.7406 136.491 72.7764 136.522 72.805 136.559C72.8335 136.596 72.8541 136.639 72.8656 136.684C72.8883 136.741 72.8935 136.804 72.8804 136.865C72.8674 136.925 72.8367 136.981 72.7923 137.024C72.7019 137.074 72.5971 137.092 72.4952 137.074ZM71.4729 136.618C71.9397 136.819 72.5184 137.004 72.6688 136.869C72.6688 136.869 72.7228 136.827 72.6688 136.703C72.663 136.679 72.6521 136.657 72.6368 136.637C72.6215 136.618 72.6021 136.602 72.5801 136.591C72.2153 136.5 71.8328 136.51 71.4729 136.618ZM72.04 135.746C71.9949 135.746 71.9503 135.755 71.9088 135.773C71.6605 135.938 71.4702 136.177 71.3649 136.456C71.8355 136.275 72.2908 136.032 72.2985 135.889C72.2985 135.842 72.229 135.8 72.1866 135.781C72.1408 135.759 72.0908 135.747 72.04 135.746Z" fill="#263238"/>
<path d="M83.8526 136.317C83.8526 136.062 87.0314 136.263 87.0314 136.263C87.0314 136.263 88.9796 138.247 90.8891 138.695C92.7987 139.143 91.7263 140.278 89.6084 140.278H84.3541C82.8496 140.278 83.7909 138.985 83.8526 136.317Z" fill="#263238"/>
<path d="M88.6979 137.074C88.2403 137.023 87.7952 136.892 87.3824 136.688L87.3554 136.669C87.3477 136.647 87.3477 136.624 87.3554 136.603C87.3554 136.572 87.6331 135.831 88.0652 135.653C88.129 135.623 88.1989 135.607 88.2696 135.607C88.3404 135.607 88.4103 135.623 88.4741 135.653C88.6207 135.723 88.6901 135.811 88.6824 135.92C88.6824 136.086 88.4471 136.255 88.1886 136.391C88.4291 136.349 88.6764 136.376 88.9023 136.468C88.9432 136.491 88.9791 136.522 89.0076 136.559C89.0361 136.596 89.0568 136.639 89.0682 136.684C89.0909 136.741 89.0961 136.804 89.0831 136.865C89.07 136.925 89.0393 136.981 88.9949 137.024C88.9046 137.074 88.7997 137.092 88.6979 137.074ZM87.6756 136.618C88.1423 136.819 88.721 137.004 88.8715 136.869C88.8715 136.869 88.9255 136.827 88.8715 136.703C88.8657 136.679 88.8547 136.657 88.8394 136.637C88.8241 136.618 88.8048 136.602 88.7827 136.591C88.418 136.5 88.0354 136.51 87.6756 136.618ZM88.2426 135.746C88.1975 135.746 88.1529 135.755 88.1115 135.773C87.8631 135.938 87.6729 136.177 87.5675 136.456C88.0382 136.275 88.4934 136.032 88.5011 135.889C88.5011 135.842 88.4317 135.8 88.3892 135.781C88.3434 135.759 88.2934 135.747 88.2426 135.746Z" fill="#263238"/>
<path d="M84.2651 54.8875C84.2651 54.8875 80.8818 58.03 80.743 59.1728C80.6041 60.3156 79.8325 64.6434 79.8325 64.6434H85.7156C85.7156 64.6434 86.6338 60.497 87.089 59.7596C87.5442 59.0222 89.99 56.9606 89.99 56.9606L84.2651 54.8875Z" fill="#407BFF"/>
<path opacity="0.7" d="M84.2651 54.8875C84.2651 54.8875 80.8818 58.03 80.743 59.1728C80.6041 60.3156 79.8325 64.6434 79.8325 64.6434H85.7156C85.7156 64.6434 86.6338 60.497 87.089 59.7596C87.5442 59.0222 89.99 56.9606 89.99 56.9606L84.2651 54.8875Z" fill="white"/>
<path d="M67.187 55.5938C67.8249 56.6177 68.6817 57.4873 69.6956 58.1401C70.7095 58.793 71.8554 59.2129 73.0508 59.3696C77.059 59.829 78.4517 56.8215 78.4517 56.8215C78.4517 56.8215 73.0508 54.8873 67.187 55.5938Z" fill="#EEC1BB"/>
<path d="M73.1704 58.7521C70.6629 57.4201 70.2964 55.9955 70.2964 55.9955C72.5648 55.0497 72.206 51.7913 72.206 51.7913L75.1533 53.5826C74.9136 53.9958 74.7035 54.4254 74.5245 54.8682C73.7761 56.7986 74.6364 57.1344 74.6364 57.1344C74.8023 58.3853 73.1704 58.7521 73.1704 58.7521Z" fill="#EEC1BB"/>
<path opacity="0.2" d="M75.1534 53.5825C74.9138 53.9956 74.7036 54.4252 74.5246 54.8681C72.3836 54.0612 72.21 51.7795 72.21 51.7795L75.1534 53.5825Z" fill="black"/>
<path d="M76.7466 44.0506C79.5589 44.9385 79.9871 46.753 79.2773 49.6987C78.39 53.405 76.7736 55.7253 73.4907 53.8374C69.0542 51.2778 72.0749 42.5719 76.7466 44.0506Z" fill="#EEC1BB"/>
<path d="M77.5063 48.9651C77.5988 49.4577 77.7503 49.9373 77.9577 50.3935C77.8385 50.4832 77.697 50.5382 77.5486 50.5525C77.4002 50.5668 77.2508 50.5398 77.1167 50.4746L77.5063 48.9651Z" fill="#D4827D"/>
<path d="M75.8594 48.1929C75.7938 48.4246 75.6125 48.579 75.4736 48.5327C75.3347 48.4864 75.246 48.2624 75.3116 48.0269C75.3772 47.7914 75.5623 47.6409 75.6974 47.6872C75.8324 47.7335 75.9288 47.9574 75.8594 48.1929Z" fill="#263238"/>
<path d="M75.6318 47.6795L76.1989 47.6293C76.1989 47.6293 75.8209 47.9806 75.6318 47.6795Z" fill="#263238"/>
<path d="M78.7682 48.9844C78.6988 49.216 78.5175 49.3704 78.3632 49.3241C78.2089 49.2778 78.1356 49.0538 78.205 48.8222C78.2745 48.5906 78.4519 48.4361 78.6101 48.4825C78.7682 48.5288 78.8338 48.7527 78.7682 48.9844Z" fill="#263238"/>
<path d="M78.5405 48.4749L79.1038 48.4209C79.1038 48.4209 78.7296 48.7761 78.5405 48.4749Z" fill="#263238"/>
<path d="M76.4454 46.2395C76.2316 46.1425 75.9985 46.0955 75.7639 46.1022C75.5292 46.1089 75.2992 46.1691 75.0913 46.2781" stroke="#263238" stroke-width="0.72468" stroke-linecap="round" stroke-linejoin="round"/>
<path d="M78.5249 46.7686C78.7324 46.7805 78.9345 46.8391 79.1161 46.94C79.2978 47.0409 79.4544 47.1816 79.5742 47.3515" stroke="#263238" stroke-width="0.72468" stroke-linecap="round" stroke-linejoin="round"/>
<path d="M76.357 51.4552C76.1235 51.7298 75.9107 52.0215 75.7205 52.3277L75.5431 52.2544C74.7715 51.9108 74.4976 51.4822 74.4552 51.1271C74.4376 50.95 74.4627 50.7712 74.5285 50.6059C74.5639 50.5111 74.6119 50.4215 74.6712 50.3395C75.0669 50.7676 75.5497 51.1059 76.087 51.3317C76.249 51.4128 76.357 51.4552 76.357 51.4552Z" fill="#263238"/>
<path d="M76.0869 51.3472L75.894 51.602C75.1494 51.2777 74.6672 50.9495 74.5283 50.6214C74.5637 50.5266 74.6117 50.437 74.6711 50.355C75.0668 50.7831 75.5496 51.1214 76.0869 51.3472Z" fill="white"/>
<path d="M75.543 52.2545C74.7714 51.9109 74.4975 51.4824 74.4551 51.1272C74.7541 51.2622 75.026 51.4506 75.2575 51.6831C75.4123 51.8374 75.5125 52.038 75.543 52.2545Z" fill="#DE5753"/>
<path d="M72.1753 47.8224C72.1753 47.8224 74.22 45.9268 74.5826 44.0776C74.5826 44.0776 80.8746 43.5602 79.3624 49.3088C79.3624 49.3088 81.4957 44.4559 76.6966 42.8151C71.8976 41.1743 69.6832 48.2587 71.5118 51.1542C71.5118 51.1542 70.9023 49.0308 72.1753 47.8224Z" fill="#263238"/>
<path d="M72.4451 48.5598C72.5201 48.226 72.4598 47.8762 72.2776 47.5867C72.0955 47.2973 71.8061 47.0919 71.4729 47.0155C70.5702 46.8379 69.5903 48.4941 71.6234 49.6099C71.9127 49.7682 72.1866 49.5172 72.4451 48.5598Z" fill="#EEC1BB"/>
<path d="M88.0652 61.9255L87.9186 60.6862C87.9186 60.6862 88.2041 59.9141 88.0652 59.5975C87.8029 58.9682 86.1363 58.1922 85.8856 58.0533C85.6348 57.9143 84.4582 59.7867 84.6125 60.165C84.7668 60.5434 86.6996 61.4121 86.6996 61.4121V62.1842L88.0652 61.9255Z" fill="#EEC1BB"/>
<path d="M77.8651 67.4579L76.268 65.1917C76.268 65.1917 72.1672 65.6665 72.1132 65.7901L70.8594 68.7203C70.8459 68.7524 70.8391 68.7869 70.8394 68.8217C70.8397 68.8565 70.8471 68.8909 70.8612 68.9228C70.8753 68.9546 70.8958 68.9832 70.9213 69.0068C70.9469 69.0304 70.9771 69.0486 71.0099 69.0601L76.2256 70.8283C76.2856 70.848 76.3509 70.8448 76.4086 70.8191C76.4664 70.7934 76.5125 70.7471 76.5381 70.6893L77.8459 67.7474C77.875 67.6538 77.8816 67.5546 77.8651 67.4579Z" fill="#407BFF"/>
<path opacity="0.1" d="M77.8768 67.562C77.1082 67.8533 76.2756 67.9333 75.4657 67.7937C74.1193 67.4925 72.1133 65.7822 72.1133 65.7822C72.1673 65.6587 76.2681 65.1838 76.2681 65.1838L77.8652 67.4501C77.8652 67.4501 77.8729 67.5041 77.8768 67.562Z" fill="black"/>
<path opacity="0.1" d="M72.3833 65.8595C74.1176 66.7025 75.9699 67.2765 77.8768 67.5621C77.8768 67.5621 74.7674 66.5274 72.3833 65.8595Z" fill="black"/>
<path d="M64.9264 67.1489L69.4516 67.4771C69.4516 67.4771 70.1653 66.9983 70.551 67.091C70.9368 67.1837 72.9969 68.311 73.0393 68.6353C73.0817 68.9596 71.9861 70.4189 71.4962 70.3494C71.0063 70.2799 69.3628 69.0368 69.251 68.8592L63.8501 68.9596L64.9264 67.1489Z" fill="#EEC1BB"/>
<path d="M65.7288 55.6905C66.2727 55.8642 66.7048 57.5552 65.2813 60.4275C65.2813 60.4275 63.3524 64.7862 63.7382 65.5159C64.1741 66.4 68.0627 67.122 68.0627 67.122L67.7541 69.616C67.7541 69.616 62.5963 70.3302 61.1226 67.1104C59.6489 63.8906 63.8925 55.0959 65.7288 55.6905Z" fill="#407BFF"/>
<path opacity="0.4" d="M65.7288 55.6905C66.2727 55.8642 66.7048 57.5552 65.2813 60.4275C65.2813 60.4275 63.3524 64.7862 63.7382 65.5159C64.1741 66.4 68.0627 67.122 68.0627 67.122L67.7541 69.616C67.7541 69.616 62.5963 70.3302 61.1226 67.1104C59.6489 63.8906 63.8925 55.0959 65.7288 55.6905Z" fill="white"/>
<path d="M76.1948 42.6838C76.1948 42.6838 78.5095 41.0469 81.1058 44.6605C81.8591 45.6714 82.3471 46.8552 82.525 48.1037C82.703 49.3521 82.5652 50.6253 82.1242 51.8066" stroke="#263238" stroke-width="0.5" stroke-linecap="round" stroke-linejoin="round"/>
</svg>
